# This file uses centimeters as units for non-parametric coordinates.

mtllib Assault_Rifle.mtl
g default
v 1.709104 2.508372 -72.716144
v 1.453850 3.009334 -72.716144
v 1.056284 3.406900 -72.716144
v 0.555321 3.662154 -72.716144
v 0.000000 3.750108 -72.716144
v -0.555321 3.662153 -72.716144
v -1.056284 3.406900 -72.716144
v -1.453850 3.009334 -72.716144
v -1.709103 2.508371 -72.716144
v -1.797057 1.953050 -72.716144
v -1.709103 1.397729 -72.716144
v -1.453850 0.896766 -72.716144
v -1.056284 0.499200 -72.716144
v -0.555321 0.243947 -72.716144
v -0.000000 0.155993 -72.716144
v 0.555321 0.243947 -72.716144
v 1.056283 0.499201 -72.716144
v 1.453849 0.896767 -72.716144
v 1.709103 1.397729 -72.716144
v 1.797057 1.953050 -72.716144
v 1.709104 2.508372 -55.605273
v 1.453850 3.009334 -55.605273
v 1.056284 3.406900 -55.605273
v 0.555321 3.662154 -55.605273
v 0.000000 3.750108 -55.605273
v -0.555321 3.662153 -55.605273
v -1.056284 3.406900 -55.605273
v -1.453850 3.009334 -55.605273
v -1.709103 2.508371 -55.605273
v -1.797057 1.953050 -55.605273
v -1.709103 1.397729 -55.605273
v -1.453850 0.896766 -55.605273
v -1.056284 0.499200 -55.605273
v -0.555321 0.243947 -55.605273
v -0.000000 0.155993 -55.605273
v 0.555321 0.243947 -55.605273
v 1.056283 0.499201 -55.605273
v 1.453849 0.896767 -55.605273
v 1.709103 1.397729 -55.605273
v 1.797057 1.953050 -55.605273
v 0.000000 1.953050 -72.716144
v 0.000000 1.953050 -55.605273
vt 0.648603 0.107966
vt 0.626409 0.064408
vt 0.591842 0.029841
vt 0.548284 0.007647
vt 0.500000 -0.000000
vt 0.451716 0.007647
vt 0.408159 0.029841
vt 0.373591 0.064409
vt 0.351397 0.107966
vt 0.343750 0.156250
vt 0.351397 0.204534
vt 0.373591 0.248091
vt 0.408159 0.282659
vt 0.451716 0.304853
vt 0.500000 0.312500
vt 0.548284 0.304853
vt 0.591841 0.282659
vt 0.626409 0.248091
vt 0.648603 0.204534
vt 0.656250 0.156250
vt 0.375000 0.312500
vt 0.387500 0.312500
vt 0.400000 0.312500
vt 0.412500 0.312500
vt 0.425000 0.312500
vt 0.437500 0.312500
vt 0.450000 0.312500
vt 0.462500 0.312500
vt 0.475000 0.312500
vt 0.487500 0.312500
vt 0.500000 0.312500
vt 0.512500 0.312500
vt 0.525000 0.312500
vt 0.537500 0.312500
vt 0.550000 0.312500
vt 0.562500 0.312500
vt 0.575000 0.312500
vt 0.587500 0.312500
vt 0.600000 0.312500
vt 0.612500 0.312500
vt 0.625000 0.312500
vt 0.375000 0.688440
vt 0.387500 0.688440
vt 0.400000 0.688440
vt 0.412500 0.688440
vt 0.425000 0.688440
vt 0.437500 0.688440
vt 0.450000 0.688440
vt 0.462500 0.688440
vt 0.475000 0.688440
vt 0.487500 0.688440
vt 0.500000 0.688440
vt 0.512500 0.688440
vt 0.525000 0.688440
vt 0.537500 0.688440
vt 0.550000 0.688440
vt 0.562500 0.688440
vt 0.575000 0.688440
vt 0.587500 0.688440
vt 0.600000 0.688440
vt 0.612500 0.688440
vt 0.625000 0.688440
vt 0.648603 0.795466
vt 0.626409 0.751908
vt 0.591842 0.717341
vt 0.548284 0.695147
vt 0.500000 0.687500
vt 0.451716 0.695147
vt 0.408159 0.717341
vt 0.373591 0.751909
vt 0.351397 0.795466
vt 0.343750 0.843750
vt 0.351397 0.892034
vt 0.373591 0.935591
vt 0.408159 0.970159
vt 0.451716 0.992353
vt 0.500000 1.000000
vt 0.548284 0.992353
vt 0.591841 0.970159
vt 0.626409 0.935591
vt 0.648603 0.892034
vt 0.656250 0.843750
vt 0.500000 0.150000
vt 0.500000 0.837500
vn 0.951057 0.309016 -0.000000
vn 0.809017 0.587785 -0.000000
vn 0.809017 0.587785 -0.000000
vn 0.951057 0.309016 -0.000000
vn 0.587785 0.809017 -0.000000
vn 0.587785 0.809017 -0.000000
vn 0.309017 0.951057 -0.000000
vn 0.309017 0.951057 -0.000000
vn -0.000000 1.000000 -0.000000
vn -0.000000 1.000000 -0.000000
vn -0.309017 0.951056 -0.000000
vn -0.309017 0.951056 -0.000000
vn -0.587785 0.809017 -0.000000
vn -0.587785 0.809017 -0.000000
vn -0.809017 0.587785 -0.000000
vn -0.809017 0.587785 -0.000000
vn -0.951057 0.309017 -0.000000
vn -0.951057 0.309017 -0.000000
vn -1.000000 0.000000 0.000000
vn -1.000000 0.000000 0.000000
vn -0.951057 -0.309017 0.000000
vn -0.951057 -0.309017 0.000000
vn -0.809017 -0.587785 0.000000
vn -0.809017 -0.587785 0.000000
vn -0.587785 -0.809017 0.000000
vn -0.587785 -0.809017 0.000000
vn -0.309017 -0.951057 0.000000
vn -0.309017 -0.951057 0.000000
vn 0.000000 -1.000000 0.000000
vn 0.000000 -1.000000 0.000000
vn 0.309017 -0.951057 0.000000
vn 0.309017 -0.951057 0.000000
vn 0.587785 -0.809017 0.000000
vn 0.587785 -0.809017 0.000000
vn 0.809017 -0.587785 0.000000
vn 0.809017 -0.587785 0.000000
vn 0.951057 -0.309017 0.000000
vn 0.951057 -0.309017 0.000000
vn 1.000000 -0.000001 0.000000
vn 1.000000 -0.000001 0.000000
vn 0.000000 -0.000000 -1.000000
vn 0.000000 -0.000000 -1.000000
vn 0.000000 -0.000000 -1.000000
vn 0.000000 -0.000000 -1.000000
vn 0.000000 -0.000000 -1.000000
vn 0.000000 -0.000000 -1.000000
vn 0.000000 -0.000000 -1.000000
vn 0.000000 -0.000000 -1.000000
vn 0.000000 -0.000000 -1.000000
vn 0.000000 -0.000000 -1.000000
vn 0.000000 -0.000000 -1.000000
vn 0.000000 -0.000000 -1.000000
vn 0.000000 -0.000000 -1.000000
vn 0.000000 -0.000000 -1.000000
vn 0.000000 -0.000000 -1.000000
vn 0.000000 -0.000000 -1.000000
vn 0.000000 -0.000000 -1.000000
vn 0.000000 -0.000000 -1.000000
vn 0.000000 -0.000000 -1.000000
vn 0.000000 -0.000000 -1.000000
vn 0.000000 -0.000000 -1.000000
vn 0.000000 0.000000 1.000000
vn 0.000000 0.000000 1.000000
vn 0.000000 0.000000 1.000000
vn 0.000000 0.000000 1.000000
vn 0.000000 0.000000 1.000000
vn 0.000000 0.000000 1.000000
vn 0.000000 0.000000 1.000000
vn 0.000000 0.000000 1.000000
vn 0.000000 0.000000 1.000000
vn 0.000000 0.000000 1.000000
vn 0.000000 0.000000 1.000000
vn 0.000000 0.000000 1.000000
vn 0.000000 0.000000 1.000000
vn 0.000000 0.000000 1.000000
vn 0.000000 0.000000 1.000000
vn 0.000000 0.000000 1.000000
vn 0.000000 0.000000 1.000000
vn 0.000000 0.000000 1.000000
vn 0.000000 0.000000 1.000000
vn 0.000000 0.000000 1.000000
vn 0.000000 0.000000 1.000000
s 1
g pCylinder1
usemtl initialShadingGroup
f 1/21/1 2/22/2 22/43/3 21/42/4
f 2/22/2 3/23/5 23/44/6 22/43/3
f 3/23/5 4/24/7 24/45/8 23/44/6
f 4/24/7 5/25/9 25/46/10 24/45/8
f 5/25/9 6/26/11 26/47/12 25/46/10
f 6/26/11 7/27/13 27/48/14 26/47/12
f 7/27/13 8/28/15 28/49/16 27/48/14
f 8/28/15 9/29/17 29/50/18 28/49/16
f 9/29/17 10/30/19 30/51/20 29/50/18
f 10/30/19 11/31/21 31/52/22 30/51/20
f 11/31/21 12/32/23 32/53/24 31/52/22
f 12/32/23 13/33/25 33/54/26 32/53/24
f 13/33/25 14/34/27 34/55/28 33/54/26
f 14/34/27 15/35/29 35/56/30 34/55/28
f 15/35/29 16/36/31 36/57/32 35/56/30
f 16/36/31 17/37/33 37/58/34 36/57/32
f 17/37/33 18/38/35 38/59/36 37/58/34
f 18/38/35 19/39/37 39/60/38 38/59/36
f 19/39/37 20/40/39 40/61/40 39/60/38
f 20/40/39 1/41/1 21/62/4 40/61/40
s 2
f 2/2/41 1/1/42 41/83/43
f 3/3/44 2/2/41 41/83/43
f 4/4/45 3/3/44 41/83/43
f 5/5/46 4/4/45 41/83/43
f 6/6/47 5/5/46 41/83/43
f 7/7/48 6/6/47 41/83/43
f 8/8/49 7/7/48 41/83/43
f 9/9/50 8/8/49 41/83/43
f 10/10/51 9/9/50 41/83/43
f 11/11/52 10/10/51 41/83/43
f 12/12/53 11/11/52 41/83/43
f 13/13/54 12/12/53 41/83/43
f 14/14/55 13/13/54 41/83/43
f 15/15/56 14/14/55 41/83/43
f 16/16/57 15/15/56 41/83/43
f 17/17/58 16/16/57 41/83/43
f 18/18/59 17/17/58 41/83/43
f 19/19/60 18/18/59 41/83/43
f 20/20/61 19/19/60 41/83/43
f 1/1/42 20/20/61 41/83/43
s 3
f 21/81/62 22/80/63 42/84/64
f 22/80/63 23/79/65 42/84/64
f 23/79/65 24/78/66 42/84/64
f 24/78/66 25/77/67 42/84/64
f 25/77/67 26/76/68 42/84/64
f 26/76/68 27/75/69 42/84/64
f 27/75/69 28/74/70 42/84/64
f 28/74/70 29/73/71 42/84/64
f 29/73/71 30/72/72 42/84/64
f 30/72/72 31/71/73 42/84/64
f 31/71/73 32/70/74 42/84/64
f 32/70/74 33/69/75 42/84/64
f 33/69/75 34/68/76 42/84/64
f 34/68/76 35/67/77 42/84/64
f 35/67/77 36/66/78 42/84/64
f 36/66/78 37/65/79 42/84/64
f 37/65/79 38/64/80 42/84/64
f 38/64/80 39/63/81 42/84/64
f 39/63/81 40/82/82 42/84/64
f 40/82/82 21/81/62 42/84/64
g default
v -4.222351 -7.006436 -10.120611
v 4.222351 -7.006436 -10.120611
v -4.222351 7.380172 -7.918505
v 4.222351 7.380172 -7.918505
v -4.222351 7.006436 -41.272823
v 4.222351 7.006436 -41.272823
v -4.222351 -5.641940 -37.059723
v 4.222351 -5.641940 -37.059723
v -3.598787 -3.150928 -6.184887
v 3.598786 -3.150928 -6.184887
v 3.598786 6.567028 -6.184887
v -3.598787 6.567028 -6.184887
v -2.385041 0.728336 11.824749
v 2.385039 0.934097 11.824749
v 2.385039 5.531902 11.824749
v -2.385041 5.531902 11.824749
v -2.385041 -17.327574 21.799080
v 2.385039 -17.327574 21.799080
v 2.385039 6.678828 21.200752
v -2.385041 6.678828 21.200752
v 2.385039 -5.467562 22.620312
v -2.385041 -5.467562 22.620312
v -2.385041 3.066891 11.824749
v -3.598787 1.650088 -6.184887
v -4.222351 -0.083579 -8.176220
v -4.222351 -0.083578 -41.272823
v 4.222351 -0.083578 -41.272823
v 4.222351 -0.083579 -8.176220
v 3.598786 1.650088 -6.184887
v 2.385039 3.066891 11.824749
v 2.385039 -17.156509 17.906456
v -2.385041 -17.156509 17.906456
v -2.385041 -3.789669 16.523647
v -2.385041 6.107418 16.523651
v 2.385039 6.107418 16.523651
v 2.385039 -3.789669 16.523647
v -4.222351 -16.435936 -0.883308
v 4.222351 -16.435936 -0.883308
v 3.598786 -12.580427 3.052418
v -3.598787 -12.580427 3.052418
v -4.222351 7.006436 -57.981441
v 4.222351 7.006436 -57.981441
v 4.222351 -0.083578 -57.981441
v -4.222351 -0.083578 -57.981441
v 4.222351 -5.980558 -30.374407
v -4.222351 -5.980558 -30.374407
v -4.222351 -0.083578 -33.059437
v -4.222351 7.099185 -32.995483
v 4.222351 7.099185 -32.995483
v 4.222351 -0.083578 -33.059437
v -4.222351 -19.774603 -37.775558
v 4.222351 -19.774603 -37.775558
v 4.222351 -20.113222 -31.090242
v -4.222351 -20.113222 -31.090242
vt 0.375000 0.000000
vt 0.625000 0.000000
vt 0.375000 0.250000
vt 0.625000 0.250000
vt 0.375000 0.500000
vt 0.625000 0.500000
vt 0.375000 0.750000
vt 0.625000 0.750000
vt 0.375000 1.000000
vt 0.625000 1.000000
vt 0.875000 0.000000
vt 0.875000 0.250000
vt 0.125000 0.000000
vt 0.125000 0.250000
vt 0.375000 0.000000
vt 0.625000 0.000000
vt 0.625000 0.250000
vt 0.375000 0.250000
vt 0.375000 0.000000
vt 0.625000 0.000000
vt 0.625000 0.250000
vt 0.375000 0.250000
vt 0.375000 0.000000
vt 0.625000 0.000000
vt 0.625000 0.250000
vt 0.375000 0.250000
vt 0.625000 0.123509
vt 0.375000 0.123509
vt 0.375000 0.123509
vt 0.375000 0.123509
vt 0.375000 0.123509
vt 0.125000 0.123509
vt 0.375000 0.626491
vt 0.625000 0.626491
vt 0.875000 0.123509
vt 0.625000 0.123509
vt 0.625000 0.123509
vt 0.625000 0.123509
vt 0.625000 0.000000
vt 0.375000 0.000000
vt 0.375000 0.123509
vt 0.375000 0.250000
vt 0.625000 0.250000
vt 0.625000 0.123509
vt 0.375000 0.000000
vt 0.625000 0.000000
vt 0.625000 0.000000
vt 0.375000 0.000000
vt 0.375000 0.500000
vt 0.625000 0.500000
vt 0.625000 0.626491
vt 0.375000 0.626491
vt 0.625000 0.812041
vt 0.812959 0.000000
vt 0.187041 0.000000
vt 0.375000 0.812041
vt 0.187041 0.123509
vt 0.187041 0.250000
vt 0.375000 0.437959
vt 0.625000 0.437959
vt 0.812959 0.250000
vt 0.812959 0.123509
vt 0.375000 0.750000
vt 0.625000 0.750000
vt 0.625000 0.812041
vt 0.375000 0.812041
vn 0.000000 -0.069078 0.997611
vn 0.000000 -0.069078 0.997611
vn 0.000000 0.024916 0.999690
vn 0.000000 0.024916 0.999690
vn 0.000000 0.999937 -0.011204
vn 0.000000 0.999937 -0.011204
vn 0.000000 0.999993 -0.003712
vn 0.000000 0.999993 -0.003712
vn 0.000000 -0.604060 -0.796939
vn 0.000000 -0.604060 -0.796939
vn 0.000000 -0.604060 -0.796939
vn 0.000000 -0.604060 -0.796939
vn 0.000000 -0.998720 -0.050586
vn 0.000000 -0.998720 -0.050586
vn 0.000000 -0.998720 -0.050586
vn 0.000000 -0.998720 -0.050586
vn 1.000000 -0.000000 0.000000
vn 1.000000 -0.000000 0.000000
vn 1.000000 -0.000000 0.000000
vn 1.000000 -0.000000 0.000000
vn -1.000000 -0.000000 0.000000
vn -1.000000 -0.000000 0.000000
vn -1.000000 -0.000000 0.000000
vn -1.000000 -0.000000 0.000000
vn 0.000000 -0.714349 0.699789
vn 0.000000 -0.714349 0.699789
vn 0.000000 -0.714349 0.699789
vn 0.000000 -0.714349 0.699789
vn 0.993314 0.071010 0.091022
vn 0.965502 -0.033048 0.258289
vn 0.955634 -0.017570 0.294032
vn 0.991615 0.050937 0.118762
vn 0.000000 0.905357 0.424652
vn 0.000000 0.905357 0.424652
vn 0.000000 0.905357 0.424652
vn 0.000000 0.905357 0.424652
vn -0.965503 -0.033048 0.258288
vn -0.993314 0.071010 0.091022
vn -0.991615 0.050937 0.118761
vn -0.955634 -0.017570 0.294032
vn 0.016785 -0.976279 0.215867
vn 0.016785 -0.976279 0.215867
vn 0.016658 -0.921505 -0.388009
vn 0.016557 -0.914485 -0.404280
vn 0.997737 0.000000 0.067242
vn 0.997737 0.000000 0.067242
vn 0.998939 -0.000000 0.046046
vn 0.999326 0.000000 0.036721
vn 0.000000 0.998352 0.057382
vn 0.000000 0.998352 0.057382
vn 0.000000 0.999621 0.027541
vn 0.000000 0.999621 0.027541
vn -0.997737 0.000000 0.067242
vn -0.997737 0.000000 0.067242
vn -0.999322 0.000000 0.036816
vn -0.998933 0.000000 0.046185
vn 0.006331 -0.481427 -0.876463
vn 0.006331 -0.481427 -0.876463
vn 1.000000 -0.000000 0.000000
vn 1.000000 0.000000 0.000000
vn 0.000000 0.992601 -0.121421
vn 0.000000 0.992601 -0.121421
vn -1.000000 0.000000 0.000000
vn -1.000000 -0.000000 0.000000
vn 0.000000 0.116081 0.993240
vn 0.000000 0.116081 0.993240
vn -0.998928 0.000000 0.046293
vn -1.000000 -0.000000 0.000000
vn -0.997737 0.000000 0.067242
vn -0.947748 -0.006639 0.318950
vn -0.947748 -0.006639 0.318950
vn -1.000000 0.000000 0.000000
vn -1.000000 0.000000 0.000000
vn 0.000000 0.000000 -1.000000
vn 0.000000 0.000000 -1.000000
vn 0.000000 0.000000 -1.000000
vn 0.000000 0.000000 -1.000000
vn 1.000000 -0.000000 0.000000
vn 1.000000 -0.000000 0.000000
vn 0.947748 -0.006639 0.318951
vn 0.947748 -0.006639 0.318951
vn 0.997737 0.000000 0.067242
vn 0.998928 -0.000000 0.046293
vn 1.000000 -0.000000 0.000000
vn 0.000000 -0.999036 -0.043904
vn 0.000000 -0.999036 -0.043904
vn -1.000000 0.000000 0.000000
vn -1.000000 0.000000 0.000000
vn -1.000000 -0.000000 0.000000
vn 0.000000 0.992620 -0.121270
vn 0.000000 0.992620 -0.121270
vn 1.000000 -0.000000 0.000000
vn 1.000000 -0.000000 0.000000
vn 1.000000 0.000000 0.000000
vn 0.000000 -0.699789 -0.714349
vn 0.000000 -0.699789 -0.714349
vn 0.000000 -0.699789 -0.714349
vn 0.000000 -0.699789 -0.714349
vn 0.993656 0.078699 0.080337
vn 0.993656 0.078699 0.080337
vn 0.000000 0.699789 0.714349
vn 0.000000 0.699789 0.714349
vn 0.000000 0.699789 0.714349
vn 0.000000 0.699789 0.714349
vn -0.993656 0.078699 0.080337
vn -0.993656 0.078699 0.080337
vn 0.000000 1.000000 0.000000
vn 0.000000 1.000000 0.000000
vn 1.000000 0.000000 0.000000
vn 1.000000 0.000000 0.000000
vn 0.000000 -1.000000 0.000000
vn 0.000000 -1.000000 0.000000
vn 0.000000 -1.000000 0.000000
vn 0.000000 -1.000000 0.000000
vn -1.000000 0.000000 0.000000
vn -1.000000 0.000000 0.000000
vn 0.000000 -0.998720 -0.050586
vn 0.000000 -0.998720 -0.050586
vn 0.000000 -0.998720 -0.050586
vn 0.000000 -0.998720 -0.050586
vn -1.000000 -0.000000 0.000000
vn -1.000000 -0.000000 0.000000
vn -1.000000 0.000000 0.000000
vn 0.000000 0.999937 -0.011204
vn 0.000000 0.999937 -0.011204
vn 1.000000 -0.000000 0.000000
vn 1.000000 -0.000000 0.000000
vn 1.000000 -0.000000 0.000000
vn 0.000000 0.050586 -0.998720
vn 0.000000 0.050586 -0.998720
vn 0.000000 0.050586 -0.998720
vn 0.000000 0.050586 -0.998720
vn 1.000000 -0.000000 0.000000
vn 1.000000 -0.000000 0.000000
vn 0.000000 -0.050586 0.998720
vn 0.000000 -0.050586 0.998720
vn 0.000000 -0.050586 0.998720
vn 0.000000 -0.050586 0.998720
vn -1.000000 0.000000 0.000000
vn -1.000000 0.000000 0.000000
s 1
g pCube1
usemtl initialShadingGroup
f 59/107/83 60/108/84 63/111/85 64/112/86
s 2
f 90/143/87 91/144/88 48/90/89 47/89/90
s off
f 68/117/91 69/118/92 50/92/93 49/91/94
f 93/147/95 94/148/96 95/149/97 96/150/98
s 3
f 92/146/99 87/138/100 50/95/101 69/119/102
s 4
f 49/97/103 88/139/104 89/141/105 68/116/106
s off
f 79/129/107 80/130/108 81/131/109 82/132/110
s 5
f 44/86/111 70/120/112 71/121/113 52/100/114
s off
f 46/88/115 45/87/116 54/102/117 53/101/118
s 6
f 67/115/119 43/85/120 51/99/121 66/114/122
s 7
f 51/99/123 52/100/124 56/104/125 55/103/126
s 8
f 52/100/127 71/121/128 72/122/129 56/104/130
s 9
f 53/101/131 54/102/132 58/106/133 57/105/134
s 10
f 66/114/135 51/99/136 55/103/137 65/113/138
s 7
f 55/103/126 56/104/125 73/123/139 74/124/140
s 8
f 56/104/130 72/122/129 78/128/141 73/123/142
s 9
f 57/105/134 58/106/133 76/126/143 77/127/144
s 10
f 65/113/138 55/103/137 74/124/145 75/125/146
s 1
f 64/112/86 63/111/85 61/109/147 62/110/148
s 10
f 58/106/149 65/113/138 75/125/146 76/126/150
f 54/102/151 66/114/135 65/113/138 58/106/149
s 6
f 45/87/152 67/115/119 66/114/122 54/102/153
s 4
f 68/116/106 89/141/105 90/142/154 47/98/155
s off
f 83/133/156 84/134/157 85/135/158 86/136/159
s 3
f 92/146/99 69/119/102 48/96/160 91/145/161
s 5
f 71/121/113 70/120/112 46/88/162 53/101/163
s 8
f 72/122/129 71/121/128 53/101/164 57/105/165
f 78/128/141 72/122/129 57/105/165 77/127/166
s 7
f 74/124/140 73/123/139 60/108/167 59/107/168
s 10
f 75/125/146 74/124/145 59/107/169 64/112/170
f 76/126/150 75/125/146 64/112/170 62/110/171
s 9
f 77/127/144 76/126/143 62/110/172 61/109/173
s 8
f 63/111/174 78/128/141 77/127/166 61/109/175
f 73/123/142 78/128/141 63/111/174 60/108/176
s off
f 43/85/177 44/86/178 80/130/179 79/129/180
s 5
f 44/86/111 52/100/114 81/131/181 80/130/182
s off
f 52/100/183 51/99/184 82/132/185 81/131/186
s 6
f 51/99/121 43/85/120 79/129/187 82/132/188
s 2
f 47/89/90 48/90/89 84/134/189 83/133/190
s 3
f 48/90/160 69/118/102 85/135/191 84/134/192
s off
f 69/118/193 68/117/194 86/136/195 85/135/196
s 4
f 68/117/106 47/89/155 83/133/197 86/136/198
s off
f 88/140/199 87/137/200 44/94/201 43/93/202
s 4
f 89/141/105 88/139/104 43/85/203 67/115/204
f 90/142/154 89/141/105 67/115/204 45/87/205
s 2
f 45/87/206 46/88/207 91/144/88 90/143/87
s 3
f 70/120/208 92/146/99 91/145/161 46/88/209
f 44/86/210 87/138/100 92/146/99 70/120/208
s off
f 49/91/211 50/92/212 94/148/213 93/147/214
s 3
f 50/92/101 87/137/100 95/149/215 94/148/216
s off
f 87/137/217 88/140/218 96/150/219 95/149/220
s 4
f 88/140/104 49/91/103 93/147/221 96/150/222
